<svg width="96" height="96" viewBox="0 0 96 96" fill="none" xmlns="http://www.w3.org/2000/svg">
  <rect x="1" y="1" width="94" height="94" rx="47" stroke="#A57C55" stroke-width="2"/>
  <path d="M27 35.5C30.8 28.2 37.1 24 45.1 24C51.7 24 57 26.6 61 31" stroke="#30433A" stroke-width="3" stroke-linecap="round"/>
  <path d="M69 60.5C65.2 67.8 58.9 72 50.9 72C44.3 72 39 69.4 35 65" stroke="#30433A" stroke-width="3" stroke-linecap="round"/>
  <path d="M61.5 35C56.5 31.5 48.5 31.5 44.5 35.5C40 40 46.5 43 51.5 45C58.5 47.8 61.5 50.5 59 55.5C56.3 60.9 47 61.5 40 57" stroke="#A57C55" stroke-width="3" stroke-linecap="round"/>
  <path d="M49.5 35C44.5 31.5 36.5 31.5 32.5 35.5C28 40 34.5 43 39.5 45C46.5 47.8 49.5 50.5 47 55.5C44.3 60.9 35 61.5 28 57" stroke="#30433A" stroke-width="3" stroke-linecap="round"/>
</svg>
