<svg width="1200" height="900" viewBox="0 0 1200 900" fill="none" xmlns="http://www.w3.org/2000/svg">
<defs>
  <linearGradient id="bg" x1="74" y1="55" x2="1110" y2="841" gradientUnits="userSpaceOnUse">
    <stop stop-color="#F7EFE6"/><stop offset="1" stop-color="#CDAF98"/>
  </linearGradient>
  <radialGradient id="glow" cx="0" cy="0" r="1" gradientTransform="translate(728 382) rotate(126.7) scale(590 524)">
    <stop stop-color="#FFFDFC" stop-opacity=".92"/><stop offset="1" stop-color="#FFFDFC" stop-opacity="0"/>
  </radialGradient>
  <filter id="blur"><feGaussianBlur stdDeviation="18"/></filter>
</defs>
<rect width="1200" height="900" rx="70" fill="url(#bg)"/>
<ellipse cx="757" cy="395" rx="535" ry="431" fill="url(#glow)"/>
<path d="M1210 205C1028 141 912 172 811 274C704 382 652 593 518 690C398 777 222 769 -20 643" stroke="#7B4F43" stroke-opacity=".32" stroke-width="2"/>
<path d="M1198 258C1015 197 903 225 813 317C718 415 670 608 534 707C408 799 214 800 -15 682" stroke="#7B4F43" stroke-opacity=".22" stroke-width="2"/>
<path d="M1188 312C1026 262 908 284 824 365C738 448 691 624 552 724C421 819 231 830 -2 726" stroke="#7B4F43" stroke-opacity=".16" stroke-width="2"/>
<circle cx="326" cy="290" r="90" fill="#FFF8F2" fill-opacity=".38" filter="url(#blur)"/>
<circle cx="900" cy="642" r="132" fill="#8C5E4E" fill-opacity=".13" filter="url(#blur)"/>
<g opacity=".55">
  <circle cx="388" cy="388" r="8" fill="#A57C55"/><circle cx="426" cy="355" r="5" fill="#A57C55"/>
  <circle cx="474" cy="402" r="6" fill="#A57C55"/><circle cx="515" cy="366" r="4" fill="#A57C55"/>
  <circle cx="557" cy="419" r="7" fill="#A57C55"/><circle cx="608" cy="381" r="5" fill="#A57C55"/>
</g>
</svg>
